<svg width="430" height="932" viewBox="0 0 430 932" fill="none" xmlns="http://www.w3.org/2000/svg">
<rect width="430" height="932" fill="#1E1D38"/>
<g clip-path="url(#clip0_238_6312)">
<path d="M139 471.412V468.037H143.463V470.075L144.95 471.533H153.482L155.05 469.996V465.042L153.526 463.548H143.113L139.08 459.631V452.453L143.113 448.5H155.174L159.2 452.453V455.87H154.737V453.797L153.213 452.339H145.067L143.543 453.797V458.251L145.067 459.709H155.481L159.513 463.662V471.34L155.4 475.372H143.033L139 471.412Z" fill="#F7F7FC"/>
<path d="M164.02 456.249H168.133V459.244L171.225 456.249H178.699L182.615 460.088V471.526L178.699 475.365H171.181L168.439 473.098V483.5H164.012V456.249H164.02ZM176.621 471.64L178.189 470.146V461.475L176.621 459.981H171.925L168.439 463.398V468.731L171.728 471.647H176.621V471.64Z" fill="#F7F7FC"/>
<path d="M186.721 471.948V467.415L190.206 464.041H200.27V461.203L198.818 459.781H192.671L191.22 461.203V462.433H186.874V460.21L190.87 456.256H200.62L204.616 460.21V475.372H200.583V472.42L197.455 475.372H190.214L186.721 471.948ZM197.017 471.948L200.27 468.874V467.265H192.321L191.067 468.459V470.797L192.241 471.948H197.017Z" fill="#F7F7FC"/>
<path d="M209.115 471.569V460.052L212.951 456.249H223.248L227.127 460.088V463.233H222.701V461.468L221.133 459.973H215.102L213.534 461.468V470.139L215.102 471.633H221.133L222.701 470.139V468.373H227.127V471.519L223.248 475.357H212.951L209.115 471.569Z" fill="#F7F7FC"/>
<path d="M230.649 471.569V460.088L234.521 456.249H245.132L249.084 460.088V467.229H235.068V470.296L236.556 471.755H243.25L244.658 470.332V469.181H249.04V471.64L245.241 475.365H234.478L230.649 471.569ZM244.665 464.041V461.396L243.141 459.859H236.6L235.076 461.396V464.041H244.665Z" fill="#F7F7FC"/>
<path d="M271.267 471.64L285.677 452.339V452.26H271.661V448.5H291V452.224L276.59 471.526V471.605H291V475.365H271.267V471.64Z" fill="#F7F7FC"/>
<path d="M269.889 457.993H268.365C263.858 457.993 260.205 454.412 260.205 449.994V448.5H264.106C264.106 451.631 266.695 454.169 269.889 454.169V457.993Z" fill="#A09CF7"/>
<path d="M250.528 457.993H252.052C256.559 457.993 260.212 454.412 260.212 449.994V448.5H256.311C256.311 451.631 253.722 454.169 250.528 454.169V457.993Z" fill="#F7F7FC"/>
<path d="M250.528 457.994H252.052C256.559 457.994 260.212 461.575 260.212 465.993V467.487H256.311C256.311 464.356 253.722 461.818 250.528 461.818V457.994Z" fill="#F7F7FC"/>
<path d="M269.889 457.994H268.365C263.858 457.994 260.205 461.575 260.205 465.993V467.487H264.106C264.106 464.356 266.695 461.818 269.889 461.818V457.994Z" fill="#F7F7FC"/>
</g>
<defs>
<clipPath id="clip0_238_6312">
<rect width="152" height="35" fill="white" transform="translate(139 448.5)"/>
</clipPath>
</defs>
</svg>
